{
  "accessors": [
    {
      "bufferView": 3,
      "componentType": 5126,
      "count": 1787,
      "max": [
        1.4490143060684204,
        2.279836654663086,
        0.9874764084815979
      ],
      "min": [
        -1.4490143060684204,
        -0.025954045355319977,
        -1.1143574714660645
      ],
      "type": "VEC3"
    },
    {
      "bufferView": 3,
      "byteOffset": 21444,
      "componentType": 5126,
      "count": 1787,
      "max": [
        0.999836266040802,
        0.9997907280921936,
        0.9999552369117737
      ],
      "min": [
        -0.9988988041877747,
        -0.9999924302101135,
        -0.992867112159729
      ],
      "type": "VEC3"
    },
    {
      "bufferView": 2,
      "componentType": 5126,
      "count": 1787,
      "max": [
        0.9711340069770813,
        0.9755595326423645
      ],
      "min": [
        0.02753758430480957,
        0.024408169090747833
      ],
      "type": "VEC2"
    },
    {
      "bufferView": 1,
      "componentType": 5125,
      "count": 9228,
      "type": "SCALAR"
    },
    {
      "bufferView": 5,
      "componentType": 5126,
      "count": 18,
      "max": [
        100.0,
        0.9698984622955322,
        0.30300769209861755,
        0.0,
        0.8542861342430115,
        100.0,
        0.9978227615356445,
        0.0,
        0.969898521900177,
        0.16830624639987946,
        100.0,
        0.0,
        1.8777132034301758,
        0.84224933385849,
        0.5840079188346863,
        1.0
      ],
      "min": [
        -0.4758515954017639,
        -0.9698984622955322,
        -0.3952442407608032,
        0.0,
        -0.855420708656311,
        -0.35155588388442993,
        -0.4201783239841461,
        0.0,
        -0.969898521900177,
        -0.537594199180603,
        0.05191395431756973,
        0.0,
        -1.8516297340393066,
        -1.8016618490219116,
        -1.3962575197219849,
        1.0
      ],
      "type": "MAT4"
    },
    {
      "bufferView": 0,
      "componentType": 5123,
      "count": 1787,
      "type": "VEC4"
    },
    {
      "bufferView": 4,
      "componentType": 5126,
      "count": 1787,
      "max": [
        1.0,
        0.4993688762187958,
        0.30143624544143677,
        0.22803077101707458
      ],
      "min": [
        0.2788074314594269,
        0.0,
        0.0,
        0.0
      ],
      "type": "VEC4"
    },
    {
      "bufferView": 6,
      "componentType": 5126,
      "count": 20,
      "max": [
        0.6333333253860474
      ],
      "min": [
        0.0
      ],
      "type": "SCALAR"
    },
    {
      "bufferView": 7,
      "componentType": 5126,
      "count": 20,
      "max": [
        7.450580596923828e-09,
        0.45679715275764465,
        7.82310962677002e-08
      ],
      "min": [
        -2.60770320892334e-08,
        0.4567969739437103,
        3.585591912269592e-08
      ],
      "type": "VEC3"
    },
    {
      "bufferView": 6,
      "byteOffset": 80,
      "componentType": 5126,
      "count": 8,
      "max": [
        0.6333333253860474
      ],
      "min": [
        0.0
      ],
      "type": "SCALAR"
    },
    {
      "bufferView": 7,
      "byteOffset": 240,
      "componentType": 5126,
      "count": 8,
      "max": [
        0.9999998807907104,
        1.0000001192092896,
        1.0
      ],
      "min": [
        0.9999998211860657,
        0.9999999403953552,
        1.0
      ],
      "type": "VEC3"
    },
    {
      "bufferView": 6,
      "byteOffset": 112,
      "componentType": 5126,
      "count": 20,
      "max": [
        0.6333333253860474
      ],
      "min": [
        0.0
      ],
      "type": "SCALAR"
    },
    {
      "bufferView": 8,
      "componentType": 5126,
      "count": 20,
      "max": [
        -0.12035127729177475,
        -0.07608281821012497,
        0.9294337630271912,
        0.5116147994995117
      ],
      "min": [
        -0.19665656983852386,
        -0.08245392143726349,
        0.8473353981971741,
        0.30113187432289124
      ],
      "type": "VEC4"
    },
    {
      "bufferView": 6,
      "byteOffset": 192,
      "componentType": 5126,
      "count": 20,
      "max": [
        0.6333333253860474
      ],
      "min": [
        0.0
      ],
      "type": "SCALAR"
    },
    {
      "bufferView": 7,
      "byteOffset": 336,
      "componentType": 5126,
      "count": 20,
      "max": [
        2.4796463549137115e-08,
        0.7035277485847473,
        4.842877388000488e-08
      ],
      "min": [
        6.28642737865448e-09,
        0.7035276889801025,
        -3.259629011154175e-08
      ],
      "type": "VEC3"
    },
    {
      "bufferView": 6,
      "byteOffset": 272,
      "componentType": 5126,
      "count": 8,
      "max": [
        0.6333333253860474
      ],
      "min": [
        0.0
      ],
      "type": "SCALAR"
    },
    {
      "bufferView": 7,
      "byteOffset": 576,
      "componentType": 5126,
      "count": 8,
      "max": [
        1.0,
        1.0,
        1.0
      ],
      "min": [
        0.9999999403953552,
        0.9999998807907104,
        0.9999999403953552
      ],
      "type": "VEC3"
    },
    {
      "bufferView": 6,
      "byteOffset": 304,
      "componentType": 5126,
      "count": 20,
      "max": [
        0.6333333253860474
      ],
      "min": [
        0.0
      ],
      "type": "SCALAR"
    },
    {
      "bufferView": 8,
      "byteOffset": 320,
      "componentType": 5126,
      "count": 20,
      "max": [
        -0.002424374921247363,
        0.14831437170505524,
        0.8959667682647705,
        0.6160260438919067
      ],
      "min": [
        -0.04366982355713844,
        -0.1348482221364975,
        -0.8546572923660278,
        -0.4721561670303345
      ],
      "type": "VEC4"
    },
    {
      "bufferView": 6,
      "byteOffset": 384,
      "componentType": 5126,
      "count": 20,
      "max": [
        0.6333333253860474
      ],
      "min": [
        0.0
      ],
      "type": "SCALAR"
    },
    {
      "bufferView": 7,
      "byteOffset": 672,
      "componentType": 5126,
      "count": 20,
      "max": [
        2.1862797439098358e-07,
        0.4131224751472473,
        1.210719347000122e-08
      ],
      "min": [
        -2.5331974029541016e-07,
        0.4131224751472473,
        -1.4901161193847656e-08
      ],
      "type": "VEC3"
    },
    {
      "bufferView": 6,
      "byteOffset": 464,
      "componentType": 5126,
      "count": 4,
      "max": [
        0.6333333253860474
      ],
      "min": [
        0.0
      ],
      "type": "SCALAR"
    },
    {
      "bufferView": 7,
      "byteOffset": 912,
      "componentType": 5126,
      "count": 4,
      "max": [
        0.9999998807907104,
        1.0,
        1.0
      ],
      "min": [
        0.9999998807907104,
        0.9999999403953552,
        0.9999999403953552
      ],
      "type": "VEC3"
    },
    {
      "bufferView": 6,
      "byteOffset": 480,
      "componentType": 5126,
      "count": 20,
      "max": [
        0.6333333253860474
      ],
      "min": [
        0.0
      ],
      "type": "SCALAR"
    },
    {
      "bufferView": 8,
      "byteOffset": 640,
      "componentType": 5126,
      "count": 20,
      "max": [
        -0.020146772265434265,
        0.3123820126056671,
        -0.5020471215248108,
        0.8322575688362122
      ],
      "min": [
        -0.07962177693843842,
        0.23428639769554138,
        -0.6578253507614136,
        0.680693507194519
      ],
      "type": "VEC4"
    },
    {
      "bufferView": 6,
      "byteOffset": 560,
      "componentType": 5126,
      "count": 20,
      "max": [
        0.6333333253860474
      ],
      "min": [
        0.0
      ],
      "type": "SCALAR"
    },
    {
      "bufferView": 7,
      "byteOffset": 960,
      "componentType": 5126,
      "count": 20,
      "max": [
        2.4796463549137115e-08,
        0.7035277485847473,
        4.842877388000488e-08
      ],
      "min": [
        6.28642737865448e-09,
        0.7035276889801025,
        -3.259629011154175e-08
      ],
      "type": "VEC3"
    },
    {
      "bufferView": 6,
      "byteOffset": 640,
      "componentType": 5126,
      "count": 4,
      "max": [
        0.6333333253860474
      ],
      "min": [
        0.0
      ],
      "type": "SCALAR"
    },
    {
      "bufferView": 7,
      "byteOffset": 1200,
      "componentType": 5126,
      "count": 4,
      "max": [
        1.0,
        1.0,
        0.9999999403953552
      ],
      "min": [
        0.9999999403953552,
        1.0,
        0.9999999403953552
      ],
      "type": "VEC3"
    },
    {
      "bufferView": 6,
      "byteOffset": 656,
      "componentType": 5126,
      "count": 20,
      "max": [
        0.6333333253860474
      ],
      "min": [
        0.0
      ],
      "type": "SCALAR"
    },
    {
      "bufferView": 8,
      "byteOffset": 960,
      "componentType": 5126,
      "count": 20,
      "max": [
        -0.05911770835518837,
        -0.2242545634508133,
        0.88026362657547,
        0.5964856743812561
      ],
      "min": [
        -0.1457667499780655,
        -0.22839544713497162,
        0.7567474842071533,
        0.4118231236934662
      ],
      "type": "VEC4"
    },
    {
      "bufferView": 6,
      "byteOffset": 736,
      "componentType": 5126,
      "count": 20,
      "max": [
        0.6333333253860474
      ],
      "min": [
        0.0
      ],
      "type": "SCALAR"
    },
    {
      "bufferView": 7,
      "byteOffset": 1248,
      "componentType": 5126,
      "count": 20,
      "max": [
        4.452886059880257e-09,
        0.7035275101661682,
        1.4668330550193787e-08
      ],
      "min": [
        2.270098775625229e-09,
        0.7035275101661682,
        1.234002411365509e-08
      ],
      "type": "VEC3"
    },
    {
      "bufferView": 6,
      "byteOffset": 816,
      "componentType": 5126,
      "count": 4,
      "max": [
        0.6333333253860474
      ],
      "min": [
        0.0
      ],
      "type": "SCALAR"
    },
    {
      "bufferView": 7,
      "byteOffset": 1488,
      "componentType": 5126,
      "count": 4,
      "max": [
        1.0,
        1.0,
        1.0
      ],
      "min": [
        0.9999999403953552,
        1.0,
        1.0
      ],
      "type": "VEC3"
    },
    {
      "bufferView": 6,
      "byteOffset": 832,
      "componentType": 5126,
      "count": 20,
      "max": [
        0.6333333253860474
      ],
      "min": [
        0.0
      ],
      "type": "SCALAR"
    },
    {
      "bufferView": 8,
      "byteOffset": 1280,
      "componentType": 5126,
      "count": 20,
      "max": [
        3.730675146584872e-08,
        0.018820857629179955,
        0.11022983491420746,
        1.0
      ],
      "min": [
        -7.185583239532889e-10,
        -0.0213180985301733,
        -0.1248559057712555,
        0.9919458627700806
      ],
      "type": "VEC4"
    },
    {
      "bufferView": 6,
      "byteOffset": 912,
      "componentType": 5126,
      "count": 20,
      "max": [
        0.6333333253860474
      ],
      "min": [
        0.0
      ],
      "type": "SCALAR"
    },
    {
      "bufferView": 7,
      "byteOffset": 1536,
      "componentType": 5126,
      "count": 20,
      "max": [
        9.353971108794212e-08,
        0.269757479429245,
        7.2177499532699585e-09
      ],
      "min": [
        -7.142079994082451e-08,
        0.2697574198246002,
        -1.816079020500183e-08
      ],
      "type": "VEC3"
    },
    {
      "bufferView": 6,
      "byteOffset": 992,
      "componentType": 5126,
      "count": 6,
      "max": [
        0.6333333253860474
      ],
      "min": [
        0.0
      ],
      "type": "SCALAR"
    },
    {
      "bufferView": 7,
      "byteOffset": 1776,
      "componentType": 5126,
      "count": 6,
      "max": [
        0.9999999403953552,
        0.9999999403953552,
        1.0
      ],
      "min": [
        0.9999999403953552,
        0.9999999403953552,
        0.9999998807907104
      ],
      "type": "VEC3"
    },
    {
      "bufferView": 6,
      "byteOffset": 1016,
      "componentType": 5126,
      "count": 20,
      "max": [
        0.6333333253860474
      ],
      "min": [
        0.0
      ],
      "type": "SCALAR"
    },
    {
      "bufferView": 8,
      "byteOffset": 1600,
      "componentType": 5126,
      "count": 20,
      "max": [
        0.009125027805566788,
        0.0016831493703648448,
        0.111521877348423,
        1.0
      ],
      "min": [
        -0.008056102320551872,
        -0.0019063366344198585,
        -0.12631915509700775,
        0.9919458627700806
      ],
      "type": "VEC4"
    },
    {
      "bufferView": 6,
      "byteOffset": 1096,
      "componentType": 5126,
      "count": 20,
      "max": [
        0.6333333253860474
      ],
      "min": [
        0.0
      ],
      "type": "SCALAR"
    },
    {
      "bufferView": 7,
      "byteOffset": 1848,
      "componentType": 5126,
      "count": 20,
      "max": [
        -1.3504177331924438e-08,
        0.9509983658790588,
        1.32844434119761e-07
      ],
      "min": [
        -2.986053004860878e-08,
        0.9509983658790588,
        1.1412703315727413e-07
      ],
      "type": "VEC3"
    },
    {
      "bufferView": 6,
      "byteOffset": 1176,
      "componentType": 5126,
      "count": 6,
      "max": [
        0.6333333253860474
      ],
      "min": [
        0.0
      ],
      "type": "SCALAR"
    },
    {
      "bufferView": 7,
      "byteOffset": 2088,
      "componentType": 5126,
      "count": 6,
      "max": [
        0.9999999403953552,
        0.9999998807907104,
        0.9999998807907104
      ],
      "min": [
        0.9999998211860657,
        0.9999998807907104,
        0.9999998807907104
      ],
      "type": "VEC3"
    },
    {
      "bufferView": 6,
      "byteOffset": 1200,
      "componentType": 5126,
      "count": 20,
      "max": [
        0.6333333253860474
      ],
      "min": [
        0.0
      ],
      "type": "SCALAR"
    },
    {
      "bufferView": 8,
      "byteOffset": 1920,
      "componentType": 5126,
      "count": 20,
      "max": [
        0.3182907700538635,
        0.6937078237533569,
        0.1822706162929535,
        0.6993963718414307
      ],
      "min": [
        0.1720413714647293,
        0.6361425518989563,
        0.003992754500359297,
        0.6788159012794495
      ],
      "type": "VEC4"
    },
    {
      "bufferView": 6,
      "byteOffset": 1280,
      "componentType": 5126,
      "count": 20,
      "max": [
        0.6333333253860474
      ],
      "min": [
        0.0
      ],
      "type": "SCALAR"
    },
    {
      "bufferView": 7,
      "byteOffset": 2160,
      "componentType": 5126,
      "count": 20,
      "max": [
        4.452886059880257e-09,
        0.7035275101661682,
        1.4668330550193787e-08
      ],
      "min": [
        2.270098775625229e-09,
        0.7035275101661682,
        1.234002411365509e-08
      ],
      "type": "VEC3"
    },
    {
      "bufferView": 6,
      "byteOffset": 1360,
      "componentType": 5126,
      "count": 8,
      "max": [
        0.6333333253860474
      ],
      "min": [
        0.0
      ],
      "type": "SCALAR"
    },
    {
      "bufferView": 7,
      "byteOffset": 2400,
      "componentType": 5126,
      "count": 8,
      "max": [
        1.0,
        1.0,
        0.9999999403953552
      ],
      "min": [
        1.0,
        0.9999998807907104,
        0.9999998807907104
      ],
      "type": "VEC3"
    },
    {
      "bufferView": 6,
      "byteOffset": 1392,
      "componentType": 5126,
      "count": 20,
      "max": [
        0.6333333253860474
      ],
      "min": [
        0.0
      ],
      "type": "SCALAR"
    },
    {
      "bufferView": 8,
      "byteOffset": 2240,
      "componentType": 5126,
      "count": 20,
      "max": [
        0.6257030367851257,
        0.43602484464645386,
        0.4731524884700775,
        0.5809938311576843
      ],
      "min": [
        -0.5939886569976807,
        -0.521747887134552,
        -0.4196969270706177,
        -0.49808230996131897
      ],
      "type": "VEC4"
    },
    {
      "bufferView": 6,
      "byteOffset": 1472,
      "componentType": 5126,
      "count": 20,
      "max": [
        0.6333333253860474
      ],
      "min": [
        0.0
      ],
      "type": "SCALAR"
    },
    {
      "bufferView": 7,
      "byteOffset": 2496,
      "componentType": 5126,
      "count": 20,
      "max": [
        2.4163455236703157e-08,
        0.2697572708129883,
        4.6566128730773926e-09
      ],
      "min": [
        -6.379559636116028e-08,
        0.2697572410106659,
        3.026798367500305e-09
      ],
      "type": "VEC3"
    },
    {
      "bufferView": 6,
      "byteOffset": 1552,
      "componentType": 5126,
      "count": 11,
      "max": [
        0.6333333253860474
      ],
      "min": [
        0.0
      ],
      "type": "SCALAR"
    },
    {
      "bufferView": 7,
      "byteOffset": 2736,
      "componentType": 5126,
      "count": 11,
      "max": [
        1.0000001192092896,
        0.9999999403953552,
        1.0000001192092896
      ],
      "min": [
        0.9999999403953552,
        0.9999999403953552,
        0.9999998807907104
      ],
      "type": "VEC3"
    },
    {
      "bufferView": 6,
      "byteOffset": 1596,
      "componentType": 5126,
      "count": 20,
      "max": [
        0.6333333253860474
      ],
      "min": [
        0.0
      ],
      "type": "SCALAR"
    },
    {
      "bufferView": 8,
      "byteOffset": 2560,
      "componentType": 5126,
      "count": 20,
      "max": [
        0.008056102320551872,
        0.0016830411041155457,
        0.11152169853448868,
        1.0
      ],
      "min": [
        -0.009125002659857273,
        -0.001906486926600337,
        -0.12631933391094208,
        0.9919458031654358
      ],
      "type": "VEC4"
    },
    {
      "bufferView": 6,
      "byteOffset": 1676,
      "componentType": 5126,
      "count": 20,
      "max": [
        0.6333333253860474
      ],
      "min": [
        0.0
      ],
      "type": "SCALAR"
    },
    {
      "bufferView": 7,
      "byteOffset": 2868,
      "componentType": 5126,
      "count": 20,
      "max": [
        7.916241884231567e-09,
        0.9509985446929932,
        -1.992157194763422e-08
      ],
      "min": [
        -2.421438694000244e-08,
        0.9509984254837036,
        -1.7782440409064293e-07
      ],
      "type": "VEC3"
    },
    {
      "bufferView": 6,
      "byteOffset": 1756,
      "componentType": 5126,
      "count": 8,
      "max": [
        0.6333333253860474
      ],
      "min": [
        0.0
      ],
      "type": "SCALAR"
    },
    {
      "bufferView": 7,
      "byteOffset": 3108,
      "componentType": 5126,
      "count": 8,
      "max": [
        0.9999999403953552,
        1.0,
        0.9999999403953552
      ],
      "min": [
        0.9999998807907104,
        1.0,
        0.9999997615814209
      ],
      "type": "VEC3"
    },
    {
      "bufferView": 6,
      "byteOffset": 1788,
      "componentType": 5126,
      "count": 20,
      "max": [
        0.6333333253860474
      ],
      "min": [
        0.0
      ],
      "type": "SCALAR"
    },
    {
      "bufferView": 8,
      "byteOffset": 2880,
      "componentType": 5126,
      "count": 20,
      "max": [
        0.3274824321269989,
        -0.6317712664604187,
        -0.01520118210464716,
        0.699288010597229
      ],
      "min": [
        0.18160688877105713,
        -0.6912193298339844,
        -0.19269637763500214,
        0.6756393313407898
      ],
      "type": "VEC4"
    },
    {
      "bufferView": 6,
      "byteOffset": 1868,
      "componentType": 5126,
      "count": 20,
      "max": [
        0.6333333253860474
      ],
      "min": [
        0.0
      ],
      "type": "SCALAR"
    },
    {
      "bufferView": 7,
      "byteOffset": 3204,
      "componentType": 5126,
      "count": 20,
      "max": [
        4.452886059880257e-09,
        0.7035275101661682,
        1.4668330550193787e-08
      ],
      "min": [
        2.270098775625229e-09,
        0.7035275101661682,
        1.234002411365509e-08
      ],
      "type": "VEC3"
    },
    {
      "bufferView": 6,
      "byteOffset": 1948,
      "componentType": 5126,
      "count": 4,
      "max": [
        0.6333333253860474
      ],
      "min": [
        0.0
      ],
      "type": "SCALAR"
    },
    {
      "bufferView": 7,
      "byteOffset": 3444,
      "componentType": 5126,
      "count": 4,
      "max": [
        0.9999999403953552,
        0.9999999403953552,
        0.9999999403953552
      ],
      "min": [
        0.9999999403953552,
        0.9999998807907104,
        0.9999998807907104
      ],
      "type": "VEC3"
    },
    {
      "bufferView": 6,
      "byteOffset": 1964,
      "componentType": 5126,
      "count": 20,
      "max": [
        0.6333333253860474
      ],
      "min": [
        0.0
      ],
      "type": "SCALAR"
    },
    {
      "bufferView": 8,
      "byteOffset": 3200,
      "componentType": 5126,
      "count": 20,
      "max": [
        0.6207916140556335,
        0.5283903479576111,
        0.43719780445098877,
        0.5879374146461487
      ],
      "min": [
        -0.604682207107544,
        -0.43321892619132996,
        -0.4636472165584564,
        -0.49531152844429016
      ],
      "type": "VEC4"
    },
    {
      "bufferView": 6,
      "byteOffset": 2044,
      "componentType": 5126,
      "count": 20,
      "max": [
        0.6333333253860474
      ],
      "min": [
        0.0
      ],
      "type": "SCALAR"
    },
    {
      "bufferView": 7,
      "byteOffset": 3492,
      "componentType": 5126,
      "count": 20,
      "max": [
        0.0,
        0.703527569770813,
        0.0
      ],
      "min": [
        0.0,
        0.703527569770813,
        -7.450580596923828e-09
      ],
      "type": "VEC3"
    },
    {
      "bufferView": 6,
      "byteOffset": 2124,
      "componentType": 5126,
      "count": 4,
      "max": [
        0.6333333253860474
      ],
      "min": [
        0.0
      ],
      "type": "SCALAR"
    },
    {
      "bufferView": 7,
      "byteOffset": 3732,
      "componentType": 5126,
      "count": 4,
      "max": [
        1.0,
        1.0,
        1.0
      ],
      "min": [
        0.9999999403953552,
        1.0,
        0.9999999403953552
      ],
      "type": "VEC3"
    },
    {
      "bufferView": 6,
      "byteOffset": 2140,
      "componentType": 5126,
      "count": 20,
      "max": [
        0.6333333253860474
      ],
      "min": [
        0.0
      ],
      "type": "SCALAR"
    },
    {
      "bufferView": 8,
      "byteOffset": 3520,
      "componentType": 5126,
      "count": 20,
      "max": [
        1.1038872926860677e-08,
        0.018820853903889656,
        0.11022984236478806,
        1.0
      ],
      "min": [
        -7.849425998074366e-09,
        -0.0213181022554636,
        -0.1248558908700943,
        0.9919458627700806
      ],
      "type": "VEC4"
    },
    {
      "bufferView": 6,
      "byteOffset": 2220,
      "componentType": 5126,
      "count": 20,
      "max": [
        0.6333333253860474
      ],
      "min": [
        0.0
      ],
      "type": "SCALAR"
    },
    {
      "bufferView": 7,
      "byteOffset": 3780,
      "componentType": 5126,
      "count": 20,
      "max": [
        1.0,
        1.0,
        0.9986031651496887
      ],
      "min": [
        1.0,
        0.9190876483917236,
        0.9980685710906982
      ],
      "type": "VEC3"
    },
    {
      "bufferView": 6,
      "byteOffset": 2300,
      "componentType": 5126,
      "count": 8,
      "max": [
        0.6333333253860474
      ],
      "min": [
        0.0
      ],
      "type": "SCALAR"
    },
    {
      "bufferView": 8,
      "byteOffset": 3840,
      "componentType": 5126,
      "count": 8,
      "max": [
        0.7642992734909058,
        0.0,
        0.0,
        0.6448618769645691
      ],
      "min": [
        0.7642991542816162,
        0.0,
        0.0,
        0.6448616981506348
      ],
      "type": "VEC4"
    }
  ],
  "animations": [
    {
      "channels": [
        {
          "sampler": 0,
          "target": {
            "node": 14,
            "path": "translation"
          }
        },
        {
          "sampler": 1,
          "target": {
            "node": 14,
            "path": "scale"
          }
        },
        {
          "sampler": 2,
          "target": {
            "node": 14,
            "path": "rotation"
          }
        },
        {
          "sampler": 3,
          "target": {
            "node": 13,
            "path": "translation"
          }
        },
        {
          "sampler": 4,
          "target": {
            "node": 13,
            "path": "scale"
          }
        },
        {
          "sampler": 5,
          "target": {
            "node": 13,
            "path": "rotation"
          }
        },
        {
          "sampler": 6,
          "target": {
            "node": 17,
            "path": "translation"
          }
        },
        {
          "sampler": 7,
          "target": {
            "node": 17,
            "path": "scale"
          }
        },
        {
          "sampler": 8,
          "target": {
            "node": 17,
            "path": "rotation"
          }
        },
        {
          "sampler": 9,
          "target": {
            "node": 16,
            "path": "translation"
          }
        },
        {
          "sampler": 10,
          "target": {
            "node": 16,
            "path": "scale"
          }
        },
        {
          "sampler": 11,
          "target": {
            "node": 16,
            "path": "rotation"
          }
        },
        {
          "sampler": 12,
          "target": {
            "node": 12,
            "path": "translation"
          }
        },
        {
          "sampler": 13,
          "target": {
            "node": 12,
            "path": "scale"
          }
        },
        {
          "sampler": 14,
          "target": {
            "node": 12,
            "path": "rotation"
          }
        },
        {
          "sampler": 15,
          "target": {
            "node": 21,
            "path": "translation"
          }
        },
        {
          "sampler": 16,
          "target": {
            "node": 21,
            "path": "scale"
          }
        },
        {
          "sampler": 17,
          "target": {
            "node": 21,
            "path": "rotation"
          }
        },
        {
          "sampler": 18,
          "target": {
            "node": 20,
            "path": "translation"
          }
        },
        {
          "sampler": 19,
          "target": {
            "node": 20,
            "path": "scale"
          }
        },
        {
          "sampler": 20,
          "target": {
            "node": 20,
            "path": "rotation"
          }
        },
        {
          "sampler": 21,
          "target": {
            "node": 19,
            "path": "translation"
          }
        },
        {
          "sampler": 22,
          "target": {
            "node": 19,
            "path": "scale"
          }
        },
        {
          "sampler": 23,
          "target": {
            "node": 19,
            "path": "rotation"
          }
        },
        {
          "sampler": 24,
          "target": {
            "node": 25,
            "path": "translation"
          }
        },
        {
          "sampler": 25,
          "target": {
            "node": 25,
            "path": "scale"
          }
        },
        {
          "sampler": 26,
          "target": {
            "node": 25,
            "path": "rotation"
          }
        },
        {
          "sampler": 27,
          "target": {
            "node": 24,
            "path": "translation"
          }
        },
        {
          "sampler": 28,
          "target": {
            "node": 24,
            "path": "scale"
          }
        },
        {
          "sampler": 29,
          "target": {
            "node": 24,
            "path": "rotation"
          }
        },
        {
          "sampler": 30,
          "target": {
            "node": 23,
            "path": "translation"
          }
        },
        {
          "sampler": 31,
          "target": {
            "node": 23,
            "path": "scale"
          }
        },
        {
          "sampler": 32,
          "target": {
            "node": 23,
            "path": "rotation"
          }
        },
        {
          "sampler": 33,
          "target": {
            "node": 11,
            "path": "translation"
          }
        },
        {
          "sampler": 34,
          "target": {
            "node": 11,
            "path": "scale"
          }
        },
        {
          "sampler": 35,
          "target": {
            "node": 11,
            "path": "rotation"
          }
        },
        {
          "sampler": 36,
          "target": {
            "node": 10,
            "path": "scale"
          }
        },
        {
          "sampler": 37,
          "target": {
            "node": 10,
            "path": "rotation"
          }
        }
      ],
      "name": "Dancing",
      "samplers": [
        {
          "input": 7,
          "interpolation": "LINEAR",
          "output": 8
        },
        {
          "input": 9,
          "interpolation": "LINEAR",
          "output": 10
        },
        {
          "input": 11,
          "interpolation": "LINEAR",
          "output": 12
        },
        {
          "input": 13,
          "interpolation": "LINEAR",
          "output": 14
        },
        {
          "input": 15,
          "interpolation": "LINEAR",
          "output": 16
        },
        {
          "input": 17,
          "interpolation": "LINEAR",
          "output": 18
        },
        {
          "input": 19,
          "interpolation": "LINEAR",
          "output": 20
        },
        {
          "input": 21,
          "interpolation": "LINEAR",
          "output": 22
        },
        {
          "input": 23,
          "interpolation": "LINEAR",
          "output": 24
        },
        {
          "input": 25,
          "interpolation": "LINEAR",
          "output": 26
        },
        {
          "input": 27,
          "interpolation": "LINEAR",
          "output": 28
        },
        {
          "input": 29,
          "interpolation": "LINEAR",
          "output": 30
        },
        {
          "input": 31,
          "interpolation": "LINEAR",
          "output": 32
        },
        {
          "input": 33,
          "interpolation": "LINEAR",
          "output": 34
        },
        {
          "input": 35,
          "interpolation": "LINEAR",
          "output": 36
        },
        {
          "input": 37,
          "interpolation": "LINEAR",
          "output": 38
        },
        {
          "input": 39,
          "interpolation": "LINEAR",
          "output": 40
        },
        {
          "input": 41,
          "interpolation": "LINEAR",
          "output": 42
        },
        {
          "input": 43,
          "interpolation": "LINEAR",
          "output": 44
        },
        {
          "input": 45,
          "interpolation": "LINEAR",
          "output": 46
        },
        {
          "input": 47,
          "interpolation": "LINEAR",
          "output": 48
        },
        {
          "input": 49,
          "interpolation": "LINEAR",
          "output": 50
        },
        {
          "input": 51,
          "interpolation": "LINEAR",
          "output": 52
        },
        {
          "input": 53,
          "interpolation": "LINEAR",
          "output": 54
        },
        {
          "input": 55,
          "interpolation": "LINEAR",
          "output": 56
        },
        {
          "input": 57,
          "interpolation": "LINEAR",
          "output": 58
        },
        {
          "input": 59,
          "interpolation": "LINEAR",
          "output": 60
        },
        {
          "input": 61,
          "interpolation": "LINEAR",
          "output": 62
        },
        {
          "input": 63,
          "interpolation": "LINEAR",
          "output": 64
        },
        {
          "input": 65,
          "interpolation": "LINEAR",
          "output": 66
        },
        {
          "input": 67,
          "interpolation": "LINEAR",
          "output": 68
        },
        {
          "input": 69,
          "interpolation": "LINEAR",
          "output": 70
        },
        {
          "input": 71,
          "interpolation": "LINEAR",
          "output": 72
        },
        {
          "input": 73,
          "interpolation": "LINEAR",
          "output": 74
        },
        {
          "input": 75,
          "interpolation": "LINEAR",
          "output": 76
        },
        {
          "input": 77,
          "interpolation": "LINEAR",
          "output": 78
        },
        {
          "input": 79,
          "interpolation": "LINEAR",
          "output": 80
        },
        {
          "input": 81,
          "interpolation": "LINEAR",
          "output": 82
        }
      ]
    }
  ],
  "asset": {
    "extras": {
      "author": "Javier Contreras (https://sketchfab.com/Javier.ConRod)",
      "license": "CC-BY-4.0 (http://creativecommons.org/licenses/by/4.0/)",
      "source": "https://sketchfab.com/3d-models/ditto-dancing-pokemon-00224d46a9404ad09ccf23102339f1ac",
      "title": "Ditto Dancing Pokemon"
    },
    "generator": "Sketchfab-15.22.0",
    "version": "2.0"
  },
  "bufferViews": [
    {
      "buffer": 0,
      "byteLength": 14296,
      "byteStride": 8,
      "name": "shortBufferViews",
      "target": 34962
    },
    {
      "buffer": 0,
      "byteLength": 36912,
      "byteOffset": 14296,
      "name": "floatBufferViews",
      "target": 34963
    },
    {
      "buffer": 0,
      "byteLength": 14296,
      "byteOffset": 51208,
      "byteStride": 8,
      "name": "floatBufferViews",
      "target": 34962
    },
    {
      "buffer": 0,
      "byteLength": 42888,
      "byteOffset": 65504,
      "byteStride": 12,
      "name": "floatBufferViews",
      "target": 34962
    },
    {
      "buffer": 0,
      "byteLength": 28592,
      "byteOffset": 108392,
      "byteStride": 16,
      "name": "floatBufferViews",
      "target": 34962
    },
    {
      "buffer": 0,
      "byteLength": 1152,
      "byteOffset": 136984,
      "name": "floatBufferViews"
    },
    {
      "buffer": 0,
      "byteLength": 2332,
      "byteOffset": 138136,
      "name": "floatBufferViews"
    },
    {
      "buffer": 0,
      "byteLength": 4020,
      "byteOffset": 140468,
      "byteStride": 12,
      "name": "floatBufferViews"
    },
    {
      "buffer": 0,
      "byteLength": 3968,
      "byteOffset": 144488,
      "byteStride": 16,
      "name": "floatBufferViews"
    }
  ],
  "buffers": [
    {
      "byteLength": 148456,
      "uri": "scene.bin"
    }
  ],
  "extensionsUsed": [
    "KHR_materials_unlit"
  ],
  "images": [
    {
      "uri": "textures/ditto_baseColor.png"
    }
  ],
  "materials": [
    {
      "doubleSided": true,
      "extensions": {
        "KHR_materials_unlit": {}
      },
      "name": "ditto",
      "pbrMetallicRoughness": {
        "baseColorTexture": {
          "index": 0
        },
        "metallicFactor": 0.0
      }
    }
  ],
  "meshes": [
    {
      "name": "Retopo_Cube_ditto_0",
      "primitives": [
        {
          "attributes": {
            "JOINTS_0": 5,
            "NORMAL": 1,
            "POSITION": 0,
            "TEXCOORD_0": 2,
            "WEIGHTS_0": 6
          },
          "indices": 3,
          "material": 0,
          "mode": 4
        }
      ]
    }
  ],
  "nodes": [
    {
      "children": [
        1
      ],
      "matrix": [
        1.0,
        0.0,
        0.0,
        0.0,
        0.0,
        2.220446049250313e-16,
        -1.0,
        0.0,
        0.0,
        1.0,
        2.220446049250313e-16,
        0.0,
        0.0,
        0.0,
        0.0,
        1.0
      ],
      "name": "Sketchfab_model"
    },
    {
      "children": [
        2
      ],
      "matrix": [
        0.009999999776482582,
        0.0,
        0.0,
        0.0,
        0.0,
        0.0,
        0.009999999776482582,
        0.0,
        0.0,
        -0.009999999776482582,
        0.0,
        0.0,
        0.0,
        0.0,
        0.0,
        1.0
      ],
      "name": "ditto.fbx"
    },
    {
      "children": [
        3
      ],
      "name": "Object_2"
    },
    {
      "children": [
        4,
        5
      ],
      "name": "RootNode"
    },
    {
      "name": "Retopo_Cube",
      "rotation": [
        -0.70710688829422,
        0.0,
        0.0,
        0.7071067094802856
      ],
      "scale": [
        100.0,
        100.0,
        100.0
      ]
    },
    {
      "children": [
        6
      ],
      "name": "Armature",
      "rotation": [
        -0.7071068286895752,
        0.0,
        0.0,
        0.7071067094802856
      ],
      "scale": [
        100.0,
        100.0,
        100.0
      ]
    },
    {
      "children": [
        7,
        9,
        8
      ],
      "name": "Object_6"
    },
    {
      "children": [
        10
      ],
      "name": "_rootJoint"
    },
    {
      "matrix": [
        100.0,
        0.0,
        0.0,
        0.0,
        0.0,
        -1.6720720902344052e-05,
        -100.0000007340152,
        0.0,
        0.0,
        100.00000041299586,
        -1.6720720848667306e-05,
        0.0,
        0.0,
        0.0,
        0.0,
        1.0
      ],
      "name": "Object_8"
    },
    {
      "mesh": 0,
      "name": "Object_9",
      "skin": 0
    },
    {
      "children": [
        11
      ],
      "name": "root_00",
      "rotation": [
        0.7642990946769714,
        0.0,
        0.0,
        0.6448618769645691
      ],
      "scale": [
        1.0,
        0.986406683921814,
        0.9996378421783447
      ]
    },
    {
      "children": [
        12,
        19,
        23
      ],
      "name": "root.002_01",
      "rotation": [
        7.4290320561942735e-09,
        -0.007594306021928787,
        -0.04447832703590393,
        0.9989815950393677
      ],
      "translation": [
        0.0,
        0.7035276293754578,
        -1.3877787807814457e-17
      ]
    },
    {
      "children": [
        13,
        16
      ],
      "name": "root.001_02",
      "rotation": [
        7.479684427380562e-09,
        -2.9103830456733704e-10,
        -1.0913930870160016e-10,
        1.0
      ],
      "scale": [
        1.0,
        1.0000001192092896,
        1.0
      ],
      "translation": [
        1.4282704796642065e-08,
        0.7035275101661682,
        -1.603621058166027e-08
      ]
    },
    {
      "children": [
        14
      ],
      "name": "root.003_03",
      "rotation": [
        -0.02480267360806465,
        0.14385183155536652,
        -0.8123767971992493,
        0.5645666122436523
      ],
      "scale": [
        1.0,
        0.9999999403953552,
        1.0
      ],
      "translation": [
        1.7069396562874317e-08,
        0.7035276889801025,
        -6.315531209111214e-09
      ]
    },
    {
      "children": [
        15
      ],
      "name": "root.004_04",
      "rotation": [
        -0.1848832070827484,
        -0.08156872540712357,
        0.9196402430534363,
        0.3367885649204254
      ],
      "scale": [
        0.9999998807907104,
        1.0,
        0.9999999403953552
      ],
      "translation": [
        1.862645149230957e-08,
        0.4567970931529999,
        -5.21540641784668e-08
      ]
    },
    {
      "name": "root.004_end_013",
      "rotation": [
        -1.3877787807814457e-17,
        -2.7755575615628914e-17,
        -3.851859888774472e-34,
        1.0
      ],
      "translation": [
        -2.220446049250313e-16,
        0.3770810663700104,
        -5.551115123125783e-17
      ]
    },
    {
      "children": [
        17
      ],
      "name": "root.005_05",
      "rotation": [
        -0.08432631194591522,
        -0.22835160791873932,
        0.8499714732170105,
        0.4672185480594635
      ],
      "scale": [
        1.0,
        0.9999999403953552,
        0.9999999403953552
      ],
      "translation": [
        1.7069396562874317e-08,
        0.7035276889801025,
        -6.315531209111214e-09
      ]
    },
    {
      "children": [
        18
      ],
      "name": "root.006_06",
      "rotation": [
        -0.030105264857411385,
        0.24776718020439148,
        -0.5295596718788147,
        0.8107228875160217
      ],
      "scale": [
        0.9999999403953552,
        0.9999999403953552,
        0.9999999403953552
      ],
      "translation": [
        9.12696123123169e-08,
        0.41312238574028015,
        -2.9802322387695313e-08
      ]
    },
    {
      "name": "root.006_end_014",
      "rotation": [
        2.7755575615628914e-17,
        2.7755575615628914e-17,
        -1.3877787807814457e-17,
        1.0
      ],
      "translation": [
        0.0,
        0.3412938117980957,
        -5.551115123125783e-17
      ]
    },
    {
      "children": [
        20
      ],
      "name": "shoulder_L_07",
      "rotation": [
        -0.56195467710495,
        -0.49189743399620056,
        -0.3696870505809784,
        0.5527886748313904
      ],
      "translation": [
        1.4282704796642065e-08,
        0.7035275101661682,
        -1.603621058166027e-08
      ]
    },
    {
      "children": [
        21
      ],
      "name": "arm_L_08",
      "rotation": [
        0.2759188711643219,
        0.657394289970398,
        0.1281975656747818,
        0.6893960237503052
      ],
      "scale": [
        0.9999998807907104,
        0.9999998807907104,
        0.9999999403953552
      ],
      "translation": [
        3.073364496231079e-08,
        0.9509984254837036,
        2.121669240295887e-08
      ]
    },
    {
      "children": [
        22
      ],
      "name": "arm_L.001_09",
      "rotation": [
        -0.005275776144117117,
        0.0011022789403796196,
        0.073033407330513,
        0.9973149299621582
      ],
      "scale": [
        0.9999998807907104,
        0.9999998807907104,
        0.9999998807907104
      ],
      "translation": [
        9.825453162193298e-08,
        0.2697572708129883,
        -1.7695128917694092e-08
      ]
    },
    {
      "name": "arm_L.001_end_015",
      "rotation": [
        8.673617379884035e-19,
        6.938893903907228e-18,
        -4.336808689942018e-18,
        1.0
      ],
      "translation": [
        -2.220446049250313e-16,
        0.26975739002227783,
        -1.3877787807814457e-17
      ]
    },
    {
      "children": [
        24
      ],
      "name": "shoulder_R_010",
      "rotation": [
        -0.5969727635383606,
        0.44942426681518555,
        0.4245340824127197,
        0.5112848281860352
      ],
      "scale": [
        1.0,
        1.0,
        0.9999999403953552
      ],
      "translation": [
        1.4282704796642065e-08,
        0.7035275101661682,
        -1.603621058166027e-08
      ]
    },
    {
      "children": [
        25
      ],
      "name": "arm_R_011",
      "rotation": [
        0.22747908532619476,
        -0.6769384145736694,
        -0.0695803314447403,
        0.6965387463569641
      ],
      "scale": [
        0.9999998807907104,
        0.9999998807907104,
        0.9999999403953552
      ],
      "translation": [
        2.468004822731018e-08,
        0.9509984254837036,
        9.720679372549057e-09
      ]
    },
    {
      "children": [
        26
      ],
      "name": "arm_R.001_012",
      "rotation": [
        0.0052757710218429565,
        0.0011021749814972281,
        0.07303324341773987,
        0.9973149299621582
      ],
      "scale": [
        1.0,
        0.9999999403953552,
        1.0
      ],
      "translation": [
        -2.9976945370435715e-08,
        0.26975739002227783,
        2.7939677238464355e-09
      ]
    },
    {
      "name": "arm_R.001_end_016",
      "rotation": [
        1.421877966754639e-34,
        6.938893903907228e-18,
        -2.0491421059976034e-17,
        1.0
      ],
      "translation": [
        0.0,
        0.26975739002227783,
        -1.3877787807814457e-17
      ]
    }
  ],
  "samplers": [
    {
      "magFilter": 9729,
      "minFilter": 9987,
      "wrapS": 10497,
      "wrapT": 10497
    }
  ],
  "scene": 0,
  "scenes": [
    {
      "name": "Sketchfab_Scene",
      "nodes": [
        0
      ]
    }
  ],
  "skins": [
    {
      "inverseBindMatrices": 4,
      "joints": [
        7,
        10,
        11,
        12,
        13,
        14,
        15,
        16,
        17,
        18,
        19,
        20,
        21,
        22,
        23,
        24,
        25,
        26
      ],
      "skeleton": 7
    }
  ],
  "textures": [
    {
      "sampler": 0,
      "source": 0
    }
  ]
}
